<?xml version="1.0" standalone="no"?>
<!DOCTYPE svg PUBLIC "-//W3C//DTD SVG 20010904//EN"
 "http://www.w3.org/TR/2001/REC-SVG-20010904/DTD/svg10.dtd">
<svg version="1.0" xmlns="http://www.w3.org/2000/svg"
 width="512.000000pt" height="512.000000pt" viewBox="0 0 512.000000 512.000000"
 preserveAspectRatio="xMidYMid meet">
<metadata>
Created by potrace 1.14, written by Peter Selinger 2001-2017
</metadata>
<g transform="translate(0.000000,512.000000) scale(0.100000,-0.100000)"
fill="#000000" stroke="none">
<path d="M2606 4832 c-4 -3 -40 -11 -71 -16 -85 -13 -217 -66 -303 -123 -68
-45 -206 -176 -196 -186 4 -4 2 -7 -3 -7 -12 0 -78 -100 -75 -112 1 -5 -2 -8
-8 -8 -5 0 -10 -9 -10 -19 0 -11 -5 -21 -11 -23 -5 -2 -11 -10 -13 -18 -2 -8
-6 -23 -10 -32 -4 -9 -9 -25 -11 -35 -2 -10 -4 -20 -5 -23 -1 -3 -2 -8 -1 -13
1 -9 -36 -3 -85 13 -132 44 -326 45 -474 4 -65 -19 -240 -102 -240 -115 0 -5
-7 -9 -15 -9 -24 0 -190 -172 -227 -235 -46 -78 -69 -125 -74 -149 -2 -11 -8
-24 -14 -30 -5 -5 -10 -23 -10 -38 0 -15 -5 -28 -11 -28 -6 0 -9 -6 -6 -12 2
-7 0 -26 -6 -43 -10 -34 -18 -265 -9 -280 7 -11 10 -25 14 -70 2 -16 6 -32 10
-35 4 -3 9 -17 11 -30 9 -47 49 -139 81 -185 12 -16 21 -32 21 -35 0 -3 17
-26 38 -51 20 -25 37 -51 37 -58 0 -10 -20 -15 -47 -12 -7 1 -13 -2 -13 -7 0
-5 -8 -9 -18 -8 -24 1 -162 -46 -162 -56 0 -4 -3 -7 -8 -6 -11 2 -105 -43
-120 -58 -7 -8 -18 -14 -23 -14 -22 0 -201 -144 -219 -177 -7 -12 -17 -20 -22
-17 -4 3 -8 1 -8 -3 0 -9 -40 -62 -72 -95 -10 -10 -18 -24 -18 -32 0 -8 -4
-16 -9 -18 -16 -6 -100 -164 -108 -202 -2 -11 -7 -24 -12 -30 -8 -10 -38 -115
-56 -201 -4 -16 -8 -92 -9 -167 -3 -149 8 -232 49 -363 27 -89 118 -279 128
-268 4 3 7 0 7 -8 0 -9 9 -25 19 -36 11 -12 18 -23 15 -25 -8 -9 160 -175 232
-229 38 -30 106 -72 150 -94 43 -22 82 -44 86 -50 4 -5 8 -6 8 -1 0 5 7 2 17
-5 9 -8 17 -13 17 -11 1 2 10 0 21 -3 11 -4 31 -11 45 -15 24 -8 91 -23 155
-35 79 -15 365 -24 365 -12 0 5 5 5 11 1 16 -9 229 -11 229 -1 0 5 5 5 11 1
16 -9 229 -11 229 -1 0 5 5 5 11 1 16 -10 949 -11 949 -1 0 5 5 5 11 1 16 -9
229 -11 229 -1 0 5 5 5 11 1 16 -9 229 -11 229 -1 0 5 5 5 11 1 16 -9 229 -11
229 -1 0 5 5 5 11 1 16 -9 229 -11 229 -1 0 5 5 5 11 1 9 -5 694 -10 694 -4 0
0 27 2 60 5 33 2 80 10 104 19 25 8 48 13 53 10 4 -3 8 0 8 5 0 6 5 11 12 11
17 0 102 42 110 54 4 6 8 7 8 3 0 -20 155 120 200 180 36 48 65 101 62 116 -1
4 2 7 6 7 10 0 39 80 57 155 13 57 14 232 1 290 -27 121 -99 258 -178 338 -21
21 -38 43 -38 48 0 5 -4 8 -9 6 -5 -1 -23 10 -40 26 -17 15 -35 27 -40 27 -5
0 -11 3 -13 8 -3 6 -94 56 -107 58 -3 0 -19 7 -36 14 -16 7 -37 14 -45 15 -8
1 -28 6 -45 9 -28 7 -128 18 -150 17 -52 -1 -123 -13 -165 -26 -18 -6 -18 -4
-1 55 11 40 24 65 38 73 12 7 41 22 64 35 78 43 198 145 265 224 66 78 152
232 170 303 3 14 10 28 15 31 5 3 7 9 4 14 -3 5 0 21 6 37 7 15 13 37 14 48 1
11 6 43 10 70 18 121 3 332 -28 390 -6 11 -10 22 -9 25 6 24 -102 260 -119
260 -5 0 -9 6 -9 13 0 6 -10 25 -23 41 -31 42 -187 196 -197 196 -5 0 -15 6
-22 13 -24 23 -112 76 -163 97 -28 12 -65 28 -83 36 -18 8 -36 12 -41 9 -5 -3
-12 -1 -16 5 -3 5 -16 10 -29 10 -12 0 -26 3 -30 7 -4 4 -17 8 -29 9 -12 1
-40 4 -62 8 -59 9 -152 9 -220 1 -33 -5 -70 -8 -82 -8 -13 -1 -23 -5 -23 -10
0 -4 -4 -6 -8 -3 -4 3 -24 1 -44 -3 l-36 -8 1 68 c1 38 0 69 -3 69 -3 0 -5 12
-5 28 1 15 -1 32 -4 37 -3 6 -7 19 -8 30 -6 38 -45 145 -68 187 -13 24 -32 58
-41 76 -10 19 -32 49 -49 68 -18 19 -31 34 -29 34 13 0 -122 118 -171 150 -33
21 -65 43 -71 49 -7 5 -15 7 -18 4 -3 -4 -14 1 -23 9 -17 14 -133 56 -178 63
-11 2 -38 7 -60 10 -41 7 -214 13 -219 7z"/>
</g>
</svg>
